<svg class="guardian-logo-svg" xmlns="http://www.w3.org/2000/svg" xmlns:xlink="http://www.w3.org/1999/xlink" x="0px" y="0px"
	 viewBox="0 0 529.12 157.26" enable-background="new 0 0 529.12 157.26" xml:space="preserve">
<path fill="#FFFFFF" d="M173.91,31.11c0-7.5,3.99-11.49,11.49-11.49h10.54c7.42,0,11.49,3.99,11.49,11.49v8.3
	c0,0.8-0.48,1.28-1.28,1.28h-7.98c-0.88,0-1.28-0.48-1.28-1.28v-6.07c0-2.08-1.12-3.19-3.19-3.19h-5.75c-2.16,0-3.19,1.12-3.19,3.19
	v36.4c0,2.16,1.12,3.19,3.19,3.19h5.75c2.08,0,3.19-1.04,3.19-3.19v-10.7h-4.15c-0.88,0-1.28-0.48-1.28-1.28v-7.98
	c0-0.88,0.4-1.28,1.28-1.28h13.41c0.8,0,1.28,0.4,1.28,1.28v22.19c0,7.5-4.07,11.49-11.49,11.49H185.4
	c-7.5,0-11.49-3.99-11.49-11.49V31.11z M249.74,19.62c0.88,0,1.6,0.72,1.6,1.6v50.76c0,7.5-3.99,11.49-11.49,11.49h-8.94
	c-7.5,0-11.49-3.99-11.49-11.49V21.22c0-0.88,0.72-1.6,1.6-1.6h7.66c0.88,0,1.6,0.72,1.6,1.6v48.53c0,2.16,1.12,3.19,3.19,3.19h4.15
	c2.08,0,3.19-1.04,3.19-3.19V21.22c0-0.88,0.72-1.6,1.6-1.6H249.74z M290.93,83.47c-0.72,0-1.12-0.4-1.28-1.12l-2.23-11.65h-14.21
	l-2.16,11.65c-0.16,0.72-0.56,1.12-1.28,1.12h-8.54c-0.88,0-1.28-0.48-1.04-1.36l13.25-61.38c0.16-0.8,0.64-1.12,1.36-1.12h11.09
	c0.72,0,1.2,0.32,1.36,1.12l13.25,61.38c0.16,0.88-0.16,1.36-1.12,1.36H290.93z M280.31,33.59l-5.11,27.86h10.22L280.31,33.59z
	 M344.49,50.59c0,5.35-2,8.86-5.83,10.54l5.51,20.91c0.24,0.96-0.24,1.44-1.12,1.44h-8.3c-0.8,0-1.2-0.4-1.36-1.12l-5.35-20.27
	h-5.51V82.2c0,0.8-0.48,1.28-1.28,1.28h-8.3c-0.8,0-1.28-0.48-1.28-1.28V20.9c0-0.8,0.48-1.28,1.28-1.28h20.04
	c7.5,0,11.49,3.99,11.49,11.49V50.59z M330.44,51.55c2.08,0,3.19-1.12,3.19-3.19V33.35c0-2.08-1.12-3.19-3.19-3.19h-7.9v21.39
	H330.44z M356.46,20.9c0-0.8,0.4-1.28,1.28-1.28h19.16c7.5,0,11.49,4.07,11.49,11.57v40.79c0,7.5-3.99,11.49-11.49,11.49h-19.16
	c-0.88,0-1.28-0.4-1.28-1.28V20.9z M374.66,72.94c2.08,0,3.19-1.04,3.19-3.19V33.43c0-2.16-1.12-3.27-3.19-3.27h-7.34v42.78H374.66z
	 M409.94,19.62c0.8,0,1.28,0.48,1.28,1.28v61.3c0,0.8-0.48,1.28-1.28,1.28h-8.3c-0.88,0-1.28-0.48-1.28-1.28V20.9
	c0-0.8,0.4-1.28,1.28-1.28H409.94z M453.2,83.47c-0.72,0-1.12-0.4-1.28-1.12l-2.23-11.65h-14.21l-2.16,11.65
	c-0.16,0.72-0.56,1.12-1.28,1.12h-8.54c-0.88,0-1.28-0.48-1.04-1.36l13.25-61.38c0.16-0.8,0.64-1.12,1.36-1.12h11.1
	c0.72,0,1.2,0.32,1.36,1.12l13.25,61.38c0.16,0.88-0.16,1.36-1.12,1.36H453.2z M442.58,33.59l-5.11,27.86h10.22L442.58,33.59z
	 M505.96,19.62c0.8,0,1.28,0.48,1.28,1.28v61.3c0,0.8-0.48,1.28-1.28,1.28h-7.9c-0.72,0-1.2-0.32-1.44-1.04l-12.21-34.08h-0.4V82.2
	c0,0.8-0.4,1.28-1.28,1.28h-8.3c-0.8,0-1.28-0.48-1.28-1.28V20.9c0-0.8,0.48-1.28,1.28-1.28h7.9c0.72,0,1.2,0.32,1.44,1.04
	l12.13,33.92h0.48V20.9c0-0.8,0.4-1.28,1.28-1.28H505.96z M173.88,139v-19.94h9.99c4.48,0,6.94,3.02,6.94,6.64
	c0,3.59-2.45,6.61-6.94,6.61h-4.84v6.7H173.88z M185.57,125.7c0-1.38-1.02-2.15-2.39-2.15h-4.16v4.27h4.16
	C184.55,127.82,185.57,127.04,185.57,125.7z M221.5,139l-3.35-6.7h-2.63v6.7h-5.14v-19.94h9.99c4.42,0,6.94,2.93,6.94,6.64
	c0,3.47-2.12,5.32-3.98,5.98l4.07,7.32H221.5z M222.07,125.67c0-1.35-1.14-2.12-2.48-2.12h-4.07v4.27h4.07
	C220.94,127.82,222.07,127.07,222.07,125.67z M246.41,129.05c0-6.07,4.57-10.31,10.67-10.31c6.1,0,10.64,4.25,10.64,10.31
	c0,6.07-4.55,10.31-10.64,10.31C250.98,139.36,246.41,135.12,246.41,129.05z M262.49,129.05c0-3.26-2.12-5.77-5.41-5.77
	c-3.32,0-5.44,2.51-5.44,5.77c0,3.23,2.12,5.77,5.44,5.77C260.37,134.82,262.49,132.28,262.49,129.05z M287.61,139v-19.94h9.99
	c4.48,0,6.94,3.02,6.94,6.64c0,3.59-2.45,6.61-6.94,6.61h-4.84v6.7H287.61z M299.3,125.7c0-1.38-1.02-2.15-2.39-2.15h-4.16v4.27
	h4.16C298.28,127.82,299.3,127.04,299.3,125.7z M324.12,139v-19.94h14.62v4.48h-9.48v3.11h9.27v4.48h-9.27v3.38h9.48V139H324.12z
	 M370.13,139l-3.35-6.7h-2.63v6.7h-5.14v-19.94h9.99c4.43,0,6.94,2.93,6.94,6.64c0,3.47-2.12,5.32-3.98,5.98l4.07,7.32H370.13z
	 M370.7,125.67c0-1.35-1.14-2.12-2.48-2.12h-4.07v4.27h4.07C369.56,127.82,370.7,127.07,370.7,125.67z M400.21,139v-15.46h-5.59
	v-4.48h16.29v4.48h-5.56V139H400.21z M430.64,139v-19.94h5.14V139H430.64z M456.65,139v-19.94h14.62v4.48h-9.48v3.11h9.27v4.48
	h-9.27v3.38h9.48V139H456.65z M490.11,136.19l2.72-3.86c1.44,1.44,3.65,2.63,6.37,2.63c1.76,0,2.84-0.69,2.84-1.64
	c0-2.72-11.3-0.54-11.3-8.22c0-3.35,2.84-6.34,7.95-6.34c3.2,0,5.98,0.96,8.1,2.78l-2.81,3.68c-1.67-1.38-3.86-2.06-5.83-2.06
	c-1.49,0-2.15,0.6-2.15,1.43c0,2.54,11.27,0.69,11.27,8.1c0,4.01-2.96,6.67-8.31,6.67C494.92,139.36,492.11,138.11,490.11,136.19z
	 M527.62,0H1.5C0.67,0,0,0.67,0,1.5v154.26c0,0.83,0.67,1.5,1.5,1.5h526.12c0.83,0,1.5-0.67,1.5-1.5V1.5
	C529.12,0.67,528.44,0,527.62,0z M526.12,100.63H153.79V3h372.33V100.63z M3,3h147.79v151.26H3V3z M153.79,154.26v-50.63h372.33
	v50.63H153.79z M104.94,53.95c-0.25-1.24,4.02-1.78,1.12-1.83c6.12-2.46,4.86-8.91,6.83-10.21c0.3,0.99,2.15,9.25,3.44,12.34
	c0.28,0.66,0.68,1.3,0.83,1.99c0.34,1.6,1.6,2.82,1.8,4.42c-0.45,0.82-0.87,1.59-1.24,2.27c1,1.27,2.22,2,3.06,3.52
	c-1.25,0.07-2.22,0.12-3.45,0.19c0.38,1.15,0.72,2.26,1.12,3.35c0.38,1.05,0.82,2.09,1.28,3.25c0.95,0.22,1.59,0.81,1.12,2.2
	c-1.11-0.21-2.21-0.42-3.59-0.69c0.62,1.28,1.1,2.26,1.66,3.41c-0.08,0.11-0.27,0.37-0.42,0.58c0.5,0.99,1.01,2,1.56,3.09
	c-0.2,0.41-0.49,0.82-0.59,1.28c-0.1,0.48-0.02,1.01-0.02,1.49c0.94,0.26,1.78,0.2,2.18,1.42c0.26,0.79,1.13,1.64,2.24,1.92
	c0.37,0.09,0.61,0.71,1.15,1.4c-1.5,0.07-2.66,0.12-3.91,0.18c0,0.58,0,1.16,0,1.82c0.52,0.99,1.86,1.39,2.1,2.94
	c0.17,1.08,1.57,1.9,2.17,2.98c0.85,1.53,1.94,2.63,3.62,3.14c0.3,0.09,0.52,0.43,0.85,0.73c-1.01,1.37-3.13,0.46-4.07,2.2
	c0.7,0.67,1.2,1.59,1.55,2.68c0.44,1.38,0.77,3.05,2.93,3.55c-0.82,0.6-1.36,0.99-2.12,1.54c0.77,3.47,2.79,6.21,5.25,8.73
	c-0.26,0.89-0.99,0.95-1.75,0.83c-0.71-0.1-1.4-0.3-2.35-0.51c0.46,3.04,2.34,5.07,4.34,7.23c-0.46,0.54-0.94,1.1-1.36,1.59
	c-0.9-0.23-1.69-0.42-2.55-0.64c-0.51,0.55-0.96,1.04-1.42,1.55c0.2,1.01,0.41,2.04,0.63,3.13c-0.43,0.09-0.66,0.14-0.94,0.19
	c-0.64,0.74,0.06,1.34,0.31,1.99c-0.05,0.15-0.06,0.37-0.16,0.45c-1.38,1-2.55,0.84-3.47-0.5c-0.78-1.14-1.51-2.32-2.29-3.47
	c-0.06-0.09-0.31-0.06-0.64-0.1c-0.28,0.78-0.4,1.44,0.18,2.27c0.68,0.98,1.13,2.12,1.68,3.2c-0.92,0.74-0.92,0.74-2.48,0.68
	c-0.05-0.23-0.1-0.46-0.18-0.81c-0.88,0-1.81,0-2.8,0c-0.45,0.79-0.96,1.69-1.48,2.59c-1.53-0.98-1.66-1.04-1.14-2.1
	c0.54-1.11,0.43-1.92-0.49-2.68c-0.55,0.55-1.1,1.1-1.75,1.75c0,0.31,0,0.72,0,1.04c-0.83,0.83-1.56,1.56-2.36,2.36
	c-0.45,0-0.95,0-1.63,0c-0.38-0.47-0.86-1.06-1.21-1.49c-0.66,0-1,0-1.43,0c-0.35-0.67-0.14-1.64-1.03-2.11
	c-0.73-0.38-1.38-0.91-2.19-1.46c-1.12,1.49-0.74,3.12-0.03,4.96c-0.42,0.06-0.97,0.29-1.15,0.13c-1.11-1.03-2.72-1.08-3.96-2.04
	c-0.76,0-1.63,0-2.62,0c-0.27,0.78-0.55,1.61-0.85,2.48c-0.49,0.13-1.03,0.27-1.75,0.45c-0.49-0.25-1.18-0.6-1.82-0.93
	c-1.19,0.93,0.38,1.68-0.03,2.75c-0.53-0.16-1.08-0.24-1.54-0.49c-0.37-0.2-0.58-0.67-0.94-0.88c-2.15-1.27-2.99-1.15-4.44,0.8
	c-0.15,0.2-0.37,0.34-0.66,0.61c-0.94-0.31-1.93-0.64-3.01-1c-0.28,0.13-0.7,0.33-1.14,0.54c-0.09,0.46-0.18,0.93-0.28,1.47
	c-0.7-0.25-1.31-0.47-1.82-0.65c-1.07,0.65-2.03,1.24-3.11,1.9c-0.57-0.53-1-0.93-1.26-1.17c-1.56-0.27-2.94-0.51-4.27-0.74
	c-0.35,0.59-0.63,1.09-0.91,1.57c-0.5-0.23-0.91-0.43-1.54-0.72c0.18-1.58,0.37-3.26,0.6-5.32c-1.97,1.34-2.67,3.18-3.83,4.47
	c-1.12-0.21-2.17-0.41-3.37-0.64c-0.11-0.11-0.36-0.36-0.7-0.7c0.18-0.32,0.38-0.66,0.54-0.93c-0.2-1.08-0.4-2.13-0.53-2.84
	c-0.52-1.08-0.91-1.87-1.36-2.81c-0.68,0.59-1.3,1.2-2.15,1.57c-0.59,0.26-0.79,1.5-1.06,2.33c-0.13,0.38-0.02,0.84-0.02,1.38
	c-1.5,0.42-2.96,0.83-4.53,1.27c-0.09-1.5-0.51-2.47-2.13-2.26c-0.33,0.04-0.72-0.31-1.26-0.57c-0.38,0.57-0.81,1.2-1.31,1.95
	c-1.73-1.23-3.19,1.33-4.76-0.51c0-0.84,0-1.77,0-2.69c-2.07-0.24-2.06-0.24-2.66,1.47c-0.16,0.45-0.45,0.85-0.8,1.51
	c-0.92,0.16-2.03,0.36-3.34,0.58c-0.06-1.48,0.52-2.53,0.99-3.76c-0.98,0.2-1.9,0.39-3.08,0.64c-0.26-0.96-0.49-1.81-0.73-2.67
	c-0.49,0.35-0.99,0.72-2.02,1.47c1.03-2.01,0.14-3.92,2.3-5.33c-0.76-0.27-1.18-0.42-1.6-0.57c-0.61-0.2-1.46-0.52-2.4,0.1
	c-0.77,0.5-1.64-0.26-2.39-0.88c2.41-3.1,4.82-6.19,7.32-9.41c-0.21-2,2.68-3.07,2-5.61c-0.48-0.43-1.13-1.01-1.89-1.69
	c-0.2-0.02-0.61-0.05-1.41-0.11c0.93-0.75,1.6-1.28,2.26-1.81c-0.02-0.03-0.25-0.18-0.23-0.27c0.43-1.42,0.31-3.06,1.65-4.11
	c0.47-0.37,0.85-0.78,0.8-1.51c-0.02-0.32,0.43-0.95,0.68-0.95c1.08-0.01,0.82-1.04,1.2-1.71c-0.48,0.19-1.01,0.3-1.44,0.57
	c-1.39,0.88-2.84,1.32-4.49,0.93c-0.23-0.24-0.46-0.49-0.68-0.72c0.83-3.81,3.97-5.88,6.33-8.7c-0.75-0.35-1.5-0.7-2.31-1.08
	c0.81-2.61,1.18-5.11,2.61-7.25c0.55-0.82,0.51-1.88,0.81-2.79c0.47-1.45,0.37-3.08,1.38-4.38c0.24-0.31,0.04-0.96,0.04-1.46
	c-1.04-0.15-1.33,0.38-1.57,1.07c-0.3,0.87-0.98,1.09-2.02,0.89c0.06-1.99,1.07-3.49,2.42-4.75c0.61-2.33,0.37-4.85,1.74-6.88
	c0.85-1.25,0.2-2.48,0.67-4.26c-0.76,0.69-1.14,1.03-1.52,1.37c-0.26-0.26-0.5-0.5-0.69-0.69c0.86-2.07,1.47-4.17,1.56-6.4
	c0.3-0.12,0.59-0.24,1.05-0.43c-0.2-0.43-0.4-0.86-0.6-1.28c3.35-4.01,4.35-14.26,5.03-14.49c0.1,2.79,1.72,6.44,1.71,8.03
	c-0.01,1.29,0.32,2.52,0.55,3.77c0.12,0.65,1.05,1.24,0.01,1.95c-0.14,0.1,0.06,0.78,0.19,1.17c0.61,1.77,1.21,3.54,1.36,5.43
	c0.04,0.46,0.28,0.93,0.51,1.34c0.83,1.48,1.69,2.94,2.53,4.4c-1.4,1.87,1.02,2.8,0.81,4.4c-0.48,0.23-1.17,0.57-2.18,1.06
	c2.34,1.18,2.68,3.33,3.68,5.24c-0.3,0.35-0.53,0.88-0.83,0.92c-0.75,0.1-1.53-0.03-2.49-0.07c0.11,0.38,0.11,1.04,0.44,1.37
	c0.79,0.78,1.42,1.7,2.27,2.45c0.65,0.57,0.69,1.78,1.19,2.58c0.49,0.78,1.24,1.39,1.83,2.12c0.13,0.16,0.02,0.51,0.02,0.77
	c-0.47,0.29-0.95,0.58-1.48,0.9c-0.45,2.67,0.88,4.96,1.28,7.62c-1.53,0.81-1.25,3.18-2.98,4.02c0.28,0.77,0.49,1.37,0.77,2.15
	c0.28,0.17,0.76,0.46,1.24,0.75c0.29,2.15,0.72,4.19,2.58,5.76c0.08-0.39,0.13-0.63,0.22-1.06c0.91,0,1.91,0,2.64,0
	c1.33-0.94,0.84-2.02,0.95-3.54c-0.63,0.81-0.97,1.25-1.43,1.83c-0.59,0.05-1.46,0.43-2.08-0.66c0.21-0.52,0.63-1.1,0.16-1.85
	c-0.33-0.53-0.44-1.19-0.71-1.98c0.3-1.35,1.49-1.94,2.93-2.35c0.03-0.38,0.07-0.79,0.1-1.16c0.51-0.3,1-0.59,1.46-0.87
	c-0.19-1.01-0.37-1.94-0.54-2.87c0.13-0.04,0.26-0.08,0.39-0.12c0.13,0.3,0.25,0.6,0.49,1.17c0.51-1.94,2.33-3.24,1.56-5.63
	c-0.68,0.51-1.2,0.9-1.91,1.43c-0.55-1.23-2.76-0.87-2.51-3.12c0.47-0.38,1.07-0.86,1.65-1.32c-0.6-1.89,1.19-2.69,1.58-4.15
	c0.35-1.31,0.69-2.93,1.69-3.94c1.15-1.16,0.47-2.99,1.81-3.95c-0.95-0.66,0.15-1.25,0.07-1.92c-0.08-0.67,0.33-1.4,0.5-2
	c-0.35-1.2-2.13-0.93-1.79-2.69c1.04-1.13,0.65-3.45,2.28-4.96c-0.3-1.85,0.53-3.94-0.56-5.9c-0.89,0-1.65,0-2.49,0
	c0-0.67,0-1.25,0-1.67c0.8-1.71,2.12-2.89,2.63-4.78c0.51-1.88,1.9-3.55,3.01-5.23c0.95-1.44,0.92-3.24,1.95-4.68
	c0.36-0.5,0.06-1.47,0.06-2.53c-0.43,0.28-0.72,0.42-0.97,0.62c-0.34,0.28-0.65,0.6-1.04,0.96c0,0.21,0,0.55,0,1.02
	c-0.87,0-1.74,0-2.97,0c0.43-0.47,0.58-0.77,0.81-0.88c1.34-0.61,1.94-1.7,2.15-3.09c0.22-1.37,1.13-2.92,2.3-4.23
	c0.48-0.54,0.81-1.22,1.37-2.07c-0.59-2.39,0.61-4.78,1.27-7.23c0.69-2.55,1.09-5.22,2.34-7.61c0.04-0.07,0-0.17,0.01-0.26
	c0.2-2.18,1.44-7.34,1.76-7.66c0.5,1.44,1.02,2.96,1.55,4.47c0.11,0.3,0.33,0.61,0.31,0.9c-0.17,2.36,1.03,4.24,2.1,6.4
	c-0.39,4.18,1.71,8.07,2.6,12.21c1.29,0.64,0.84,2.08,1.4,3.06c0.52,0.9,0.75,1.98,1.34,2.81c0.64,0.91,1.56,1.62,2.53,2.59
	c-0.31,0.11-0.62,0.22-1.2,0.43c-0.79-0.2-2.07-0.52-3.43-0.86c-0.41,1.66,0.68,2.54,1.38,3.53c-0.18,0.18-0.31,0.31-0.43,0.43
	c1.53,0.88,1.53,0.88,3.62,5.3c-0.44,0.3-0.9,0.61-1.52,1.04c-0.56,1.24,0.35,2.44,1.05,3.41c1,1.4,1.56,2.99,2.53,4.5
	c-0.47,0-0.88,0-1.27,0c-0.23,1.34-0.23,1.34,1.04,2.77c-0.93-0.27-1.47-0.43-2.2-0.64c-0.13,0.96-0.25,1.89-0.44,3.32
	c0.71,1.2,1.69,2.84,2.81,4.73c-0.11,0.53-0.42,1.41-0.42,2.3c0,0.88,0.21,1.8,0.51,2.64c0.29,0.81,0.8,1.53,0.92,2.59
	c-0.74-0.35-1.47-0.71-2.4-1.15c0,0.67-0.2,1.35,0.03,1.57c1.39,1.29,1.73,2.72,0.85,4.26c1.12,1.59,2.15,3.05,3.25,4.61
	c-0.35,0.09-0.59,0.15-0.92,0.23c-0.16,0.52-0.35,1.12-0.57,1.84c0.4,0.76,0.87,1.68,1.43,2.74c-0.16,0.36-0.39,0.86-0.69,1.51
	c-0.37,0.05-0.84,0.13-1.46,0.22c1.45,1.86,2.06,4.18,3.95,5.52c0.3-0.19,0.57-0.36,0.99-0.63c0.21,0.47,0.36,0.81,0.51,1.17
	c0.4,0.05,0.81,0.1,1.26,0.15c-0.05,0.15-0.05,0.3-0.12,0.39c-0.5,0.64-0.49,1.25,0.15,1.78c0.59,0.49,0.83,1.05,0.38,1.96
	c-0.38-0.15-0.78-0.3-1.3-0.51c-0.26,1.71,1.21,2.79,1.54,4.34c-0.32,0.16-0.67,0.32-1.07,0.52c-0.03,1.02,0.92,1.29,1.47,2
	c1.44-0.8,1.87-2.22,2.11-3.49c0.21-1.16,0.3-2.27,1.1-3.21c0.13-0.15,0.02-0.5,0.02-0.82c-0.39-0.56-0.8-1.16-1.39-2
	c-0.54,0-1.38,0-2.57,0c0.56-0.82,0.91-1.34,1.28-1.88c-0.1-0.11-0.27-0.3-0.58-0.64c0.46-0.69,0.81-1.73,1.5-2.07
	c0.6-0.3,0.61-0.53,0.75-1.03c0.42-1.54,0.96-3.05,1.45-4.59c-0.93-0.7-0.93-0.7-2.94-0.71c-0.05-0.55-0.09-1.11-0.15-1.83
	c0.74-0.62,1.53-1.28,2.35-1.96c-0.29-0.81-0.51-1.42-0.69-1.93c0.76-1.3,1.48-2.56,2.24-3.86c-0.84-0.38-1.5-0.68-2.31-1.05
	c0.3-0.85,0.6-1.74,1-2.88c-0.61-0.49-1.4-1.13-2.22-1.79c0.71-1.01,0.7-2.3,2.09-2.44c0.59-1.23,1.18-2.46,1.76-3.69
	c0.28-0.58,0.56-1.16,0.97-2.02c0-0.4,0-1.16,0-2.05c-1.07,0.06-2.02,1.21-3.05,0.25c0.97-1.77,0.97-1.77,1.05-3.15
	c0.51-0.36,1.14-0.81,1.77-1.26c-0.13-0.1-0.27-0.19-0.4-0.29c0.43-1.56,0.86-3.11,1.27-4.62C106.9,54.54,105.86,54.22,104.94,53.95
	z"/>
</svg>
